<?xml version="1.0" standalone="no"?>
<!DOCTYPE svg PUBLIC "-//W3C//DTD SVG 1.1//EN" "http://www.w3.org/Graphics/SVG/1.1/DTD/svg11.dtd" >
<svg xmlns="http://www.w3.org/2000/svg">
    <metadata>Generated by IcoMoon</metadata>
    <defs>
        <font id="somoney-font" horiz-adv-x="1024">
            <font-face units-per-em="1024" ascent="960" descent="-64"/>
            <missing-glyph horiz-adv-x="1024"/>
            <glyph unicode="&#x20;" horiz-adv-x="512" d=""/>
            <glyph unicode="&#xe900;" glyph-name="deviseHeol" horiz-adv-x="438"
                   d="M438.193 898.537q0-107.875-11.623-298.041-11.623-212.227-13.948-299.203v-56.826q-3.487-147.277 15.261-219.178c1.382-5.775 2.175-12.406 2.175-19.221 0-0.189-0.001-0.378-0.002-0.567v0.029q0-30.162-22.084-49.875t-52.304-19.759q-53.467 0-67.414 54.629-18.597 73.226-18.597 196.431-41.843-2.325-102.284-2.325-13.948-156.483-26.733-197.338-16.272-51.386-66.252-51.374-30.22 0-52.304 19.759t-22.084 50.131c-0.003 0.276-0.005 0.602-0.005 0.928 0 7.982 1.191 15.686 3.406 22.944l-0.146-0.556q13.030 44.424 13.018 300.889 0 299.877-8.136 543.034-1.162 40.53 38.356 63.695 33.707 23.246 76.713 23.246 77.875 0 80.2-59.278 4.649-134.829-25.571-573.022 54.176 0 90.661 2.325-1.162 86.848-17.435 273.284-15.11 178.322-15.11 273.307 0 39.368 40.681 63.695 34.869 19.666 77.875 19.69 83.687 0 83.687-61.452z"/>
            <glyph unicode="&#xe901;" glyph-name="star-filled"
                   d="M799.347-15.935c-4.876 0-9.404 0.522-13.584 1.567s-8.359 2.612-12.539 4.702l-261.224 171.363-261.224-171.363c-8.359-4.876-17.415-7.14-27.167-6.792s-18.46 2.961-26.122 7.837c-6.966 6.269-12.19 13.932-15.673 22.988s-3.831 18.112-1.045 27.167l82.547 290.482-246.596 208.98c-6.966 5.573-11.842 12.887-14.629 21.943s-2.786 18.46 0 28.212c3.483 9.056 8.882 16.37 16.196 21.943s15.499 9.056 24.555 10.449l294.661 20.898 132.702 289.437c3.483 8.359 9.056 14.803 16.718 19.331s16.022 6.792 25.078 6.792c9.056 0 17.415-2.264 25.078-6.792s13.235-10.971 16.718-19.331l132.702-289.437 294.661-20.898c9.056-0.697 17.241-4.005 24.555-9.927s12.713-13.409 16.196-22.465c2.786-9.056 2.786-18.112 0-27.167s-7.663-16.718-14.629-22.988l-245.551-206.89 82.547-291.527c3.483-9.056 3.483-18.112 0-27.167s-9.056-16.718-16.718-22.988c-4.18-2.786-8.707-4.876-13.584-6.269s-9.752-2.090-14.629-2.090z"/>
            <glyph unicode="&#xe902;" glyph-name="facebook"
                   d="M590.924 624.472v88.231c0 13.245 0.609 23.505 1.848 30.752 1.234 7.258 4.041 14.397 8.399 21.444 4.351 7.043 11.395 11.905 21.124 14.599 9.741 2.699 22.686 4.044 38.848 4.044h88.227v176.458h-141.047c-81.613 0-140.229-19.363-175.855-58.089-35.622-38.735-53.432-95.79-53.432-171.187v-106.249h-105.644v-176.471h105.638v-511.999h211.894v511.997h141.038l18.643 176.471h-159.679z"/>
            <glyph unicode="&#xe903;" glyph-name="instagram"
                   d="M985.343 921.327c-25.779 25.786-56.671 38.673-92.661 38.673h-761.34c-36.002 0-66.885-12.892-92.671-38.673-25.781-25.774-38.668-56.662-38.668-92.657v-761.333c0-35.99 12.885-66.885 38.668-92.661 25.786-25.779 56.676-38.675 92.671-38.675h761.331c35.983 0 66.885 12.896 92.664 38.675 25.786 25.777 38.661 56.671 38.661 92.661v761.333c-0.002 36.002-12.875 66.873-38.654 92.657zM367.68 591.005c40.219 38.883 88.554 58.334 144.999 58.334 56.882 0 105.434-19.451 145.662-58.334 40.228-38.89 60.33-85.895 60.33-141.004 0-55.102-20.102-102.109-60.33-140.988-40.228-38.899-88.764-58.348-145.662-58.348-56.443 0-104.773 19.465-144.999 58.348-40.228 38.883-60.34 85.885-60.34 140.988 0 55.109 20.112 102.111 60.34 141.004zM908.016 94.659c0-11.547-4.012-21.209-12.004-28.992-8.016-7.776-17.557-11.666-28.679-11.666h-712.655c-11.554 0-21.228 3.89-28.999 11.666-7.783 7.766-11.671 17.445-11.671 28.992v432.015h93.997c-8.885-28.004-13.328-57.12-13.328-87.335 0-85.353 31.107-158.117 93.329-218.352 62.229-60.211 137.116-90.331 224.671-90.331 57.778 0 111.108 13.784 160.013 41.337 48.889 27.57 87.531 65.005 115.996 112.344 28.448 47.336 42.671 99.006 42.671 155 0 30.215-4.46 59.324-13.345 87.335h90.009v-432.015h-0.005zM908.016 690.008c0-12.889-4.444-23.78-13.347-32.667-8.885-8.894-19.768-13.335-32.665-13.335h-115.996c-12.882 0-23.782 4.444-32.667 13.335-8.887 8.887-13.328 19.778-13.328 32.667v109.99c0 12.446 4.441 23.222 13.328 32.336 8.887 9.109 19.787 13.669 32.667 13.669h115.996c12.896 0 23.782-4.558 32.665-13.669 8.901-9.114 13.347-19.89 13.347-32.336v-109.99z"/>
            <glyph unicode="&#xe904;" glyph-name="twitter"
                   d="M1024 765.064c-40.286-17.328-80.581-28.149-120.848-32.496 45.481 27.289 76.245 65.841 92.274 115.653-41.603-24.685-85.995-41.574-133.206-50.675-41.588 44.182-92.692 66.282-153.349 66.282-58.037 0-107.521-20.464-148.472-61.4-40.928-40.934-61.394-90.419-61.394-148.46 0-15.591 1.73-31.624 5.198-48.083-85.77 4.331-166.227 25.88-241.387 64.648-75.155 38.772-138.939 90.428-191.35 154.967-19.060-32.48-28.593-67.789-28.593-105.906 0-35.953 8.445-69.311 25.348-100.066 16.891-30.75 39.637-55.654 68.228-74.716-33.793 1.302-65.413 10.184-94.864 26.645v-2.599c0-50.684 15.919-95.182 47.753-133.529 31.838-38.342 72.017-62.477 120.527-72.445-18.195-4.759-36.608-7.141-55.231-7.141-12.13 0-25.343 1.081-39.635 3.232 13.427-42.009 38.119-76.541 74.067-103.628 35.955-27.073 76.673-41.028 122.157-41.915-76.234-59.766-163.082-89.65-260.545-89.65-18.63 0-35.518 0.849-50.682 2.592 97.465-62.802 204.888-94.204 322.277-94.204 74.504 0 144.462 11.791 209.849 35.404 65.42 23.598 121.292 55.226 167.645 94.868 46.339 39.633 86.309 85.223 119.874 136.767 33.568 51.549 58.574 105.364 75.048 161.457 16.454 56.105 24.688 112.296 24.688 168.617 0 12.13-0.218 21.222-0.653 27.289 41.162 29.874 76.248 66.050 105.273 108.491z"/>
            <glyph unicode="&#xe911;" glyph-name="briefcase"
                   d="M1010.643 705.113c-7.791 7.791-18.922 10.017-31.165 10.017h-233.739v133.565c0 24.487-22.261 44.522-46.748 44.522h-373.983c-24.487 0-46.748-20.035-46.748-44.522v-133.565h-233.739c-24.487 0-44.522-14.47-44.522-38.957v-628.87c0-24.487 20.035-44.522 44.522-44.522h934.957c24.487 0 44.522 20.035 44.522 44.522v626.643c0 12.243-4.452 22.261-13.357 31.165zM367.304 804.174h289.391v-89.043h-289.391v89.043zM934.957 626.087v-233.739h-311.652v16.696c0 18.922-17.809 27.826-36.73 27.826h-149.148c-18.922 0-36.73-10.017-36.73-27.826v-16.696h-311.652v233.739h845.913zM556.522 370.087v-22.261h-89.043v22.261h89.043zM89.043 91.826v233.739h311.652v-11.13c0-18.922 17.809-33.391 36.73-33.391h150.261c18.922 0 36.73 15.583 36.73 33.391v11.13h311.652v-233.739h-847.026z"/>
            <glyph unicode="&#xe914;" glyph-name="calendar"
                   d="M244.87 717.357v142.47c0 31.165 24.487 55.652 55.652 55.652s55.652-24.487 55.652-55.652v-142.47c0-31.165-24.487-55.652-55.652-55.652s-55.652 24.487-55.652 55.652zM723.478 661.704c31.165 0 55.652 24.487 55.652 55.652v142.47c0 31.165-24.487 55.652-55.652 55.652s-55.652-24.487-55.652-55.652v-142.47c0-31.165 24.487-55.652 55.652-55.652zM1024 788.591v-752.417c0-24.487-20.035-44.522-44.522-44.522h-934.957c-24.487 0-44.522 20.035-44.522 44.522v752.417c0 24.487 20.035 48.974 44.522 48.974h103.513c24.487 0 44.522-20.035 44.522-44.522s-20.035-44.522-44.522-44.522h-58.991v-189.217h845.913v189.217h-58.991c-24.487 0-44.522 20.035-44.522 44.522s20.035 44.522 44.522 44.522h103.513c24.487 0 44.522-24.487 44.522-48.974zM934.957 80.696v400.696h-845.913v-400.696h845.913zM441.878 748.522h140.243c24.487 0 44.522 20.035 44.522 44.522s-20.035 44.522-44.522 44.522h-140.243c-24.487 0-44.522-20.035-44.522-44.522s20.035-44.522 44.522-44.522z"/>
            <glyph unicode="&#xe91a;" glyph-name="checkmark"
                   d="M382.887 158.609c-13.357 0-25.6 4.452-35.617 14.47l-221.496 221.496c-20.035 20.035-20.035 51.2 0 71.235s51.2 20.035 71.235 0l186.991-185.878 444.104 442.991c20.035 20.035 51.2 20.035 71.235 0s20.035-51.2 0-71.235l-479.722-478.609c-11.13-10.017-23.374-14.47-36.73-14.47z"/>
            <glyph unicode="&#xe91b;" glyph-name="chevron-down"
                   d="M512 258.783c-12.243 0-23.374 4.452-32.278 13.357l-278.261 289.391c-16.696 17.809-16.696 45.635 1.113 63.443 17.809 16.696 45.635 16.696 63.443-1.113l245.983-256 245.983 256c16.696 17.809 45.635 17.809 63.443 1.113s17.809-45.635 1.113-63.443l-278.261-289.391c-8.904-8.904-20.035-13.357-32.278-13.357z"/>
            <glyph unicode="&#xe91c;" glyph-name="chevron-left"
                   d="M687.861 202.017c17.809-16.696 17.809-45.635 1.113-63.443-8.904-8.904-21.148-13.357-32.278-13.357s-22.261 4.452-31.165 12.243l-289.391 278.261c-8.904 8.904-13.357 20.035-13.357 32.278s4.452 23.374 13.357 32.278l289.391 278.261c17.809 16.696 45.635 16.696 63.443-1.113 16.696-17.809 16.696-45.635-1.113-63.443l-256-245.983 256-245.983z"/>
            <glyph unicode="&#xe91d;" glyph-name="chevron-right"
                   d="M701.217 448c0-12.243-4.452-23.374-13.357-32.278l-289.391-278.261c-8.904-7.791-20.035-12.243-31.165-12.243-12.243 0-23.374 4.452-32.278 13.357-16.696 17.809-16.696 45.635 1.113 63.443l256 245.983-256 245.983c-17.809 16.696-17.809 45.635-1.113 63.443s45.635 17.809 63.443 1.113l289.391-278.261c8.904-8.904 13.357-20.035 13.357-32.278z"/>
            <glyph unicode="&#xe91e;" glyph-name="chevron-up"
                   d="M790.261 258.783c-12.243 0-23.374 4.452-32.278 13.357l-245.983 256-245.983-256c-16.696-17.809-45.635-17.809-63.443-1.113s-17.809 45.635-1.113 63.443l278.261 289.391c8.904 8.904 20.035 13.357 32.278 13.357s23.374-4.452 32.278-13.357l278.261-289.391c16.696-17.809 16.696-45.635-1.113-63.443-8.904-7.791-20.035-12.243-31.165-12.243z"/>
            <glyph unicode="&#xe926;" glyph-name="cross"
                   d="M786.922 244.313c20.035-20.035 20.035-51.2 0-71.235-10.017-10.017-22.261-14.47-35.617-14.47s-25.6 4.452-35.617 14.47l-203.687 203.687-203.687-203.687c-10.017-10.017-22.261-14.47-35.617-14.47s-25.6 4.452-35.617 14.47c-20.035 20.035-20.035 51.2 0 71.235l203.687 203.687-203.687 203.687c-20.035 20.035-20.035 51.2 0 71.235s51.2 20.035 71.235 0l203.687-203.687 203.687 203.687c20.035 20.035 51.2 20.035 71.235 0s20.035-51.2 0-71.235l-203.687-203.687 203.687-203.687z"/>
            <glyph unicode="&#xe929;" glyph-name="document-edit"
                   d="M958.33 857.6l-79.026 81.252c-6.678 6.678-15.583 10.017-24.487 10.017v0c-8.904 0-17.809-3.339-23.374-10.017l-466.365-473.043c-3.339-3.339-5.565-6.678-7.791-11.13l-52.313-132.452c-4.452-12.243-2.226-26.713 7.791-35.617 6.678-6.678 14.47-10.017 23.374-10.017 4.452 0 7.791 1.113 12.243 2.226l131.339 52.313c4.452 2.226 7.791 4.452 11.13 7.791l466.365 473.043c14.47 12.243 14.47 33.391 1.113 45.635zM449.67 390.122l-53.426-21.148 21.148 54.539 437.426 444.104 33.391-33.391-438.539-444.104zM790.261 430.191v-449.67c0-24.487-22.261-44.522-46.748-44.522h-632.209c-24.487 0-44.522 20.035-44.522 44.522v848.139c0 24.487 20.035 42.296 44.522 42.296h463.026c24.487 0 44.522-20.035 44.522-44.522s-20.035-44.522-44.522-44.522h-418.504v-756.87h545.391v405.148c0 24.487 20.035 44.522 44.522 44.522s44.522-20.035 44.522-44.522z"/>
            <glyph unicode="&#xe92b;" glyph-name="document"
                   d="M845.913 937.739h-667.826c-24.487 0-44.522-20.035-44.522-44.522v-890.435c0-24.487 20.035-44.522 44.522-44.522h667.826c24.487 0 44.522 20.035 44.522 44.522v890.435c0 24.487-20.035 44.522-44.522 44.522zM801.391 47.304h-578.783v801.391h578.783v-801.391zM328.348 342.261c0 21.148 17.809 38.957 38.957 38.957h131.339c21.148 0 38.957-17.809 38.957-38.957s-17.809-38.957-38.957-38.957h-131.339c-22.261 0-38.957 17.809-38.957 38.957zM333.913 520.348c0 21.148 17.809 38.957 38.957 38.957h264.904c21.148 0 38.957-17.809 38.957-38.957s-16.696-38.957-38.957-38.957h-264.904c-21.148 0-38.957 17.809-38.957 38.957zM333.913 687.304c0 21.148 17.809 38.957 38.957 38.957h264.904c21.148 0 38.957-17.809 38.957-38.957s-16.696-38.957-38.957-38.957h-264.904c-21.148 0-38.957 17.809-38.957 38.957zM664.487 366.748c6.678-6.678 11.13-16.696 11.13-27.826 0-10.017-4.452-20.035-11.13-27.826s-17.809-11.13-27.826-11.13-20.035 4.452-27.826 11.13c-7.791 6.678-11.13 16.696-11.13 27.826 0 10.017 4.452 20.035 11.13 27.826 14.47 14.47 41.183 14.47 55.652 0z"/>
            <glyph unicode="&#xe92c;" glyph-name="download"
                   d="M990.609 305.53v-302.748c0-31.165-24.487-55.652-55.652-55.652h-845.913c-31.165 0-55.652 24.487-55.652 55.652v302.748c0 31.165 24.487 55.652 55.652 55.652s55.652-24.487 55.652-55.652v-247.096h734.609v247.096c0 31.165 24.487 55.652 55.652 55.652s55.652-24.487 55.652-55.652zM471.93 236.522c10.017-11.13 24.487-16.696 40.070-16.696s28.939 5.565 40.070 16.696l221.496 227.061c21.148 22.261 21.148 56.765-1.113 79.026-22.261 21.148-56.765 21.148-79.026-1.113l-125.774-130.226v481.948c0 31.165-24.487 55.652-55.652 55.652s-55.652-24.487-55.652-55.652v-481.948l-126.887 129.113c-21.148 22.261-56.765 22.261-79.026 1.113s-22.261-56.765-1.113-79.026l222.609-225.948z"/>
            <glyph unicode="&#xe92d;" glyph-name="enter"
                   d="M990.609 815.304v-734.609c0-24.487-20.035-44.522-44.522-44.522h-579.896c-24.487 0-43.409 20.035-43.409 44.522v203.687c0 24.487 20.035 44.522 44.522 44.522s44.522-20.035 44.522-44.522v-159.165h489.739v645.565h-489.739v-159.165c0-24.487-20.035-44.522-44.522-44.522s-44.522 20.035-44.522 44.522v203.687c0 24.487 18.922 44.522 43.409 44.522h579.896c24.487 0 44.522-20.035 44.522-44.522zM517.565 304.417c-17.809-17.809-16.696-45.635 0-63.443 8.904-8.904 20.035-13.357 31.165-13.357s23.374 4.452 31.165 13.357l174.748 175.861c16.696 17.809 16.696 45.635 0 62.33l-173.635 178.087c-17.809 17.809-45.635 17.809-63.443 0s-17.809-45.635 0-63.443l99.061-100.174-538.713-1.113c-24.487 0-44.522-20.035-44.522-44.522s20.035-44.522 44.522-44.522c0 0 0 0 0 0l538.713 1.113-99.061-100.174z"/>
            <glyph unicode="&#xe92e;" glyph-name="exit"
                   d="M667.826 284.383v-203.687c0-24.487-17.809-44.522-42.296-44.522h-581.009c-24.487 0-44.522 20.035-44.522 44.522v734.609c0 24.487 20.035 44.522 44.522 44.522h581.009c24.487 0 42.296-20.035 42.296-44.522v-203.687c0-24.487-20.035-44.522-44.522-44.522s-44.522 20.035-44.522 44.522v159.165h-489.739v-645.565h489.739v159.165c0 24.487 20.035 44.522 44.522 44.522s44.522-20.035 44.522-44.522zM1010.643 481.391l-173.635 175.861c-17.809 17.809-45.635 17.809-63.443 0s-17.809-45.635 0-63.443l99.061-100.174-539.826-1.113c-24.487 0-44.522-20.035-44.522-44.522s20.035-44.522 44.522-44.522c0 0 0 0 0 0l539.826 1.113-99.061-100.174c-17.809-17.809-16.696-45.635 0-63.443 8.904-8.904 20.035-13.357 31.165-13.357s23.374 4.452 31.165 13.357l174.748 175.861c17.809 18.922 17.809 46.748 0 64.557z"/>
            <glyph unicode="&#xe934;" glyph-name="folder-open"
                   d="M1013.983 530.365c-8.904 11.13-21.148 17.809-34.504 17.809h-55.652v121.322c0 21.148-15.583 34.504-36.73 34.504h-389.565l-50.087 82.365c-6.678 11.13-20.035 17.809-33.391 17.809h-287.165c-21.148 0-37.843-12.243-37.843-33.391v-222.609h-44.522c-13.357 0-26.713-6.678-34.504-16.696s-12.243-24.487-8.904-37.843l82.365-377.322c4.452-20.035 22.261-35.617 43.409-35.617h760.209c20.035 0 37.843 14.47 43.409 33.391l92.383 378.435c3.339 13.357 0 26.713-8.904 37.843zM166.957 726.261h224.835l50.087-82.365c6.678-11.13 20.035-17.809 33.391-17.809h370.643v-77.913h-678.957v178.087zM851.478 169.739h-688.974l-62.33 289.391h822.539l-71.235-289.391z"/>
            <glyph unicode="&#xe935;" glyph-name="folder"
                   d="M890.435 704h-384l-48.974 79.026c-7.791 13.357-22.261 21.148-37.843 21.148h-286.052c-24.487 0-44.522-20.035-44.522-44.522v-623.304c0-24.487 20.035-44.522 44.522-44.522h756.87c24.487 0 44.522 20.035 44.522 44.522v522.017c0 24.487-20.035 45.635-44.522 45.635zM845.913 180.87h-667.826v534.261h215.93l48.974-79.026c7.791-13.357 22.261-21.148 37.843-21.148h365.078v-434.087z"/>
            <glyph unicode="&#xe940;" glyph-name="information"
                   d="M481.948 138.574c-8.904 0-17.809 3.339-24.487 8.904-11.13 8.904-16.696 23.374-13.357 37.843l54.539 278.261-30.052-16.696c-18.922-10.017-42.296-4.452-53.426 14.47-10.017 18.922-4.452 42.296 14.47 53.426l103.513 58.991c13.357 7.791 30.052 6.678 42.296-2.226s17.809-24.487 15.583-38.957l-56.765-289.391 46.748 20.035c20.035 8.904 42.296 0 51.2-20.035s0-42.296-20.035-51.2l-114.643-50.087c-4.452-2.226-10.017-3.339-15.583-3.339zM592.139 670.609c10.017 10.017 16.696 24.487 16.696 38.957s-5.565 28.939-16.696 38.957c-10.017 10.017-24.487 16.696-38.957 16.696s-28.939-5.565-38.957-16.696c-10.017-10.017-16.696-24.487-16.696-38.957s5.565-28.939 16.696-38.957c10.017-10.017 24.487-16.696 38.957-16.696s28.939 5.565 38.957 16.696zM1024 448c0 282.713-229.287 512-512 512s-512-229.287-512-512 229.287-512 512-512 512 229.287 512 512zM934.957 448c0-233.739-189.217-422.957-422.957-422.957s-422.957 189.217-422.957 422.957 189.217 422.957 422.957 422.957 422.957-189.217 422.957-422.957z"/>
            <glyph unicode="&#xe94a;" glyph-name="menu"
                   d="M868.174 698.435h-712.348c-40.070 0-72.348 32.278-72.348 72.348s32.278 72.348 72.348 72.348h712.348c40.070 0 72.348-32.278 72.348-72.348s-32.278-72.348-72.348-72.348zM940.522 448c0 40.070-32.278 72.348-72.348 72.348h-712.348c-40.070 0-72.348-32.278-72.348-72.348s32.278-72.348 72.348-72.348h712.348c40.070 0 72.348 32.278 72.348 72.348zM940.522 125.217c0 40.070-32.278 72.348-72.348 72.348h-712.348c-40.070 0-72.348-32.278-72.348-72.348s32.278-72.348 72.348-72.348h712.348c40.070 0 72.348 32.278 72.348 72.348z"/>
            <glyph unicode="&#xe94b;" glyph-name="message"
                   d="M979.478 893.217h-934.957c-24.487 0-44.522-20.035-44.522-44.522v-568.765c0-24.487 20.035-43.409 44.522-43.409h523.13v-189.217c0-18.922 14.47-35.617 31.165-42.296 5.565-2.226 11.13-2.226 16.696-2.226 13.357 0 25.6 5.565 34.504 15.583l184.765 218.157h144.696c24.487 0 44.522 18.922 44.522 43.409v568.765c0 24.487-20.035 44.522-44.522 44.522zM934.957 325.565h-120.209c-13.357 0-27.826-6.678-36.73-15.583l-121.322-141.357v111.304c0 24.487-15.583 45.635-40.070 45.635h-527.583v478.609h845.913v-478.609zM207.026 648.348c0 24.487 20.035 44.522 44.522 44.522h322.783c24.487 0 44.522-20.035 44.522-44.522s-20.035-44.522-44.522-44.522h-322.783c-24.487 0-44.522 20.035-44.522 44.522zM695.652 613.843c-7.791 7.791-13.357 20.035-13.357 31.165 0 12.243 4.452 23.374 13.357 31.165 8.904 8.904 20.035 13.357 31.165 13.357 12.243 0 23.374-4.452 31.165-13.357 7.791-7.791 13.357-20.035 13.357-31.165 0-12.243-4.452-23.374-13.357-31.165-8.904-8.904-20.035-13.357-31.165-13.357-11.13 1.113-22.261 5.565-31.165 13.357z"/>
            <glyph unicode="&#xe951;" glyph-name="photo"
                   d="M979.478 837.565h-934.957c-24.487 0-44.522-20.035-44.522-44.522v-690.087c0-24.487 20.035-44.522 44.522-44.522h934.957c24.487 0 44.522 20.035 44.522 44.522v690.087c0 24.487-20.035 44.522-44.522 44.522zM934.957 748.522v-372.87l-74.574 62.33c-16.696 13.357-40.070 13.357-56.765 0l-120.209-100.174-279.374 242.643c-16.696 14.47-40.070 14.47-56.765 1.113l-258.226-208.139v375.096h845.913zM89.043 147.478v111.304l284.939 230.4 279.374-242.643c16.696-14.47 41.183-14.47 57.878-1.113l120.209 100.174 103.513-86.817v-111.304h-845.913zM579.896 597.148c0 44.522 36.73 81.252 82.365 81.252s82.365-36.73 82.365-81.252c0-44.522-36.73-81.252-82.365-81.252s-82.365 36.73-82.365 81.252z"/>
            <glyph unicode="&#xe954;" glyph-name="plus"
                   d="M806.957 442.435c0-27.826-22.261-50.087-50.087-50.087h-200.348v-189.217c0-27.826-22.261-50.087-50.087-50.087s-50.087 22.261-50.087 50.087v189.217h-189.217c-27.826 0-50.087 22.261-50.087 50.087s22.261 50.087 50.087 50.087h189.217v200.348c0 27.826 22.261 50.087 50.087 50.087s50.087-22.261 50.087-50.087v-200.348h200.348c27.826 0 50.087-22.261 50.087-50.087z"/>
            <glyph unicode="&#xe955;" glyph-name="preview"
                   d="M1016.209 472.487c-7.791 11.13-188.104 276.035-504.209 276.035s-496.417-264.904-504.209-276.035c-10.017-14.47-10.017-34.504 0-50.087 7.791-10.017 188.104-274.922 504.209-274.922s496.417 264.904 504.209 276.035c10.017 14.47 10.017 34.504 0 48.974zM512 236.522c-214.817 0-361.739 151.374-411.826 211.478 50.087 61.217 195.896 211.478 411.826 211.478 214.817 0 361.739-151.374 411.826-211.478-51.2-61.217-197.009-211.478-411.826-211.478zM537.6 630.539c-48.974 6.678-96.835-5.565-136.904-35.617 0 0 0 0 0 0-81.252-61.217-97.948-176.974-36.73-258.226 30.052-40.070 72.348-64.557 121.322-72.348 8.904-1.113 17.809-2.226 25.6-2.226 40.070 0 77.913 13.357 110.191 36.73 81.252 61.217 97.948 176.974 36.73 258.226-27.826 41.183-71.235 66.783-120.209 73.461zM582.122 353.391c-24.487-18.922-55.652-26.713-86.817-22.261s-58.991 21.148-77.913 45.635c-37.843 52.313-27.826 126.887 24.487 165.843 24.487 18.922 55.652 26.713 86.817 22.261s58.991-21.148 77.913-45.635c37.843-52.313 27.826-126.887-24.487-165.843zM577.67 514.783c8.904-7.791 13.357-20.035 13.357-31.165s-4.452-23.374-13.357-31.165c-7.791-7.791-20.035-13.357-31.165-13.357-12.243 0-23.374 4.452-31.165 13.357-8.904 8.904-13.357 20.035-13.357 31.165 0 12.243 4.452 23.374 13.357 31.165 7.791 8.904 20.035 13.357 31.165 13.357 12.243-1.113 23.374-5.565 31.165-13.357z"/>
            <glyph unicode="&#xe956;" glyph-name="print"
                   d="M979.478 770.783h-222.609v133.565c0 18.922-10.017 33.391-27.826 33.391h-434.087c-17.809 0-27.826-14.47-27.826-33.391v-133.565h-222.609c-24.487 0-44.522-18.922-44.522-43.409v-510.887c0-24.487 20.035-46.748 44.522-46.748h163.617l-26.713-173.635c-2.226-11.13 1.113-24.487 8.904-33.391s17.809-15.583 30.052-15.583h584.348c11.13 0 22.261 7.791 30.052 16.696s11.13 20.035 8.904 31.165l-27.826 174.748h163.617c24.487 0 44.522 22.261 44.522 46.748v510.887c0 24.487-20.035 43.409-44.522 43.409zM333.913 870.957h356.174v-100.174h-356.174v100.174zM264.904 25.043l42.296 278.261h409.6l42.296-278.261h-494.191zM934.957 258.783h-132.452l-14.47 91.27c-3.339 18.922-18.922 31.165-38.957 31.165h-475.27c-18.922 0-35.617-12.243-38.957-31.165l-13.357-91.27h-132.452v422.957h845.913v-422.957zM203.687 570.435c0 18.922 14.47 33.391 33.391 33.391h104.626c18.922 0 33.391-14.47 33.391-33.391s-14.47-33.391-33.391-33.391h-104.626c-17.809 0-33.391 14.47-33.391 33.391z"/>
            <glyph unicode="&#xe958;" glyph-name="question"
                   d="M677.843 676.174c35.617-40.070 52.313-94.609 44.522-152.487-13.357-106.852-91.27-144.696-160.278-144.696-3.339 0-5.565 0-5.565 0v-26.713c0-24.487-20.035-44.522-44.522-44.522s-44.522 20.035-44.522 44.522v35.617c0 36.73 15.583 80.139 94.609 80.139 43.409 0 65.67 22.261 71.235 66.783 2.226 14.47 3.339 53.426-23.374 82.365-21.148 23.374-55.652 35.617-102.4 35.617-100.174 0-103.513-65.67-103.513-72.348 0-24.487-20.035-44.522-44.522-44.522s-44.522 20.035-44.522 44.522c0 44.522 34.504 161.391 192.557 161.391 92.383 0 143.583-35.617 170.296-65.67zM508.661 269.913c-14.47 0-28.939-5.565-38.957-16.696-10.017-10.017-16.696-24.487-16.696-38.957s5.565-28.939 16.696-38.957c10.017-10.017 24.487-16.696 38.957-16.696s28.939 5.565 38.957 16.696c10.017 10.017 16.696 24.487 16.696 38.957s-5.565 28.939-16.696 38.957c-10.017 10.017-23.374 16.696-38.957 16.696zM1024 448c0-282.713-229.287-512-512-512s-512 229.287-512 512 229.287 512 512 512 512-229.287 512-512zM934.957 448c0 233.739-189.217 422.957-422.957 422.957s-422.957-189.217-422.957-422.957 189.217-422.957 422.957-422.957 422.957 189.217 422.957 422.957z"/>
            <glyph unicode="&#xe95d;" glyph-name="star"
                   d="M786.922-19.478c-8.904 0-16.696 2.226-24.487 6.678l-250.435 163.617-250.435-163.617c-15.583-10.017-35.617-8.904-50.087 1.113-14.47 11.13-21.148 30.052-16.696 47.861l79.026 278.261-235.965 199.235c-13.357 11.13-18.922 30.052-13.357 47.861s21.148 28.939 38.957 31.165l281.6 20.035 126.887 277.148c6.678 15.583 22.261 25.6 40.070 25.6s33.391-10.017 40.070-25.6l126.887-277.148 281.6-20.035c17.809-1.113 33.391-13.357 38.957-31.165 5.565-16.696 0-35.617-13.357-47.861l-234.852-198.122 79.026-278.261c5.565-17.809-1.113-36.73-16.696-47.861-7.791-5.565-16.696-8.904-26.713-8.904zM512 247.652c8.904 0 16.696-2.226 24.487-6.678l175.861-114.643-54.539 192.557c-4.452 16.696 1.113 34.504 14.47 45.635l172.522 145.809-198.122 15.583c-16.696 1.113-30.052 11.13-37.843 25.6l-96.835 212.591-96.835-212.591c-6.678-14.47-21.148-24.487-37.843-25.6l-198.122-14.47 172.522-145.809c13.357-11.13 18.922-28.939 14.47-45.635l-54.539-193.67 175.861 113.53c7.791 5.565 15.583 7.791 24.487 7.791z"/>
            <glyph unicode="&#xe961;" glyph-name="swap"
                   d="M1024 342.261c0-12.243-4.452-23.374-13.357-31.165l-207.026-207.026c-8.904-8.904-20.035-12.243-31.165-12.243s-23.374 5.565-31.165 13.357c-17.809 17.809-17.809 46.748 0 64.557l130.226 133.565h-435.2c-24.487 0-44.522 20.035-44.522 44.522s20.035 44.522 44.522 44.522h435.2l-130.226 128c-17.809 17.809-17.809 43.409 0 60.104 17.809 17.809 45.635 17.809 63.443 0l207.026-207.026c7.791-7.791 12.243-18.922 12.243-31.165zM152.487 503.652h435.2c24.487 0 44.522 20.035 44.522 44.522s-20.035 44.522-44.522 44.522h-435.2l130.226 133.565c17.809 17.809 17.809 46.748 0 64.557s-45.635 17.809-63.443 1.113l-205.913-207.026c-8.904-7.791-13.357-18.922-13.357-31.165s4.452-23.374 13.357-31.165l207.026-207.026c8.904-8.904 20.035-13.357 31.165-13.357s23.374 4.452 31.165 13.357c17.809 17.809 17.809 43.409 0 60.104l-130.226 128z"/>
            <glyph unicode="&#xe963;" glyph-name="tags"
                   d="M837.009 385.67c0 12.243-4.452 23.374-13.357 31.165l-415.165 409.6c-7.791 7.791-17.809 12.243-28.939 12.243l-331.687 21.148c-13.357 1.113-25.6-4.452-34.504-13.357s-14.47-21.148-13.357-34.504l21.148-326.122c1.113-11.13 5.565-21.148 13.357-28.939l416.278-408.487c8.904-8.904 20.035-13.357 31.165-13.357s22.261 4.452 31.165 13.357l310.539 306.087c8.904 7.791 13.357 18.922 13.357 31.165zM481.948 143.026l-371.757 366.191-17.809 258.226 264.904-16.696 371.757-365.078-247.096-242.643zM289.391 668.383c12.243-12.243 20.035-30.052 20.035-46.748 0-17.809-6.678-34.504-20.035-46.748-12.243-12.243-30.052-20.035-47.861-20.035s-34.504 6.678-47.861 20.035c-12.243 12.243-20.035 30.052-20.035 46.748 0 17.809 6.678 34.504 20.035 46.748 12.243 12.243 30.052 20.035 47.861 20.035s35.617-7.791 47.861-20.035zM1024 385.67c0-10.017-4.452-20.035-11.13-27.826l-310.539-304.974c-7.791-7.791-17.809-11.13-27.826-11.13s-20.035 3.339-27.826 11.13c-15.583 15.583-15.583 40.070 0 54.539l282.713 277.148-388.452 381.774c-15.583 15.583-15.583 40.070 0 54.539 15.583 15.583 40.070 15.583 55.652 0l416.278-407.374c6.678-7.791 11.13-17.809 11.13-27.826z"/>
            <glyph unicode="&#xe96c;" glyph-name="user-group"
                   d="M394.017 355.617c130.226 0 235.965 105.739 235.965 234.852 0 130.226-105.739 234.852-235.965 234.852s-235.965-105.739-235.965-234.852c1.113-129.113 106.852-234.852 235.965-234.852zM394.017 737.391c81.252 0 146.922-65.67 146.922-145.809s-65.67-145.809-146.922-145.809-146.922 65.67-146.922 145.809c1.113 80.139 66.783 145.809 146.922 145.809zM500.87 334.47c-12.243 3.339-25.6 2.226-36.73-4.452l-70.122-42.296-70.122 42.296c-11.13 6.678-24.487 7.791-36.73 4.452-67.896-22.261-287.165-101.287-287.165-220.383 0-24.487 20.035-44.522 44.522-44.522h698.991c24.487 0 44.522 20.035 44.522 44.522 0 119.096-219.27 198.122-287.165 220.383zM124.661 158.609c37.843 28.939 101.287 60.104 170.296 84.591l75.687-45.635c14.47-8.904 32.278-8.904 45.635 0l75.687 45.635c69.009-23.374 132.452-55.652 170.296-84.591h-537.6zM1012.87 192c0-18.922-14.47-33.391-33.391-33.391h-149.148c-18.922 0-33.391 14.47-33.391 33.391s14.47 33.391 33.391 33.391h99.061c-16.696 22.261-43.409 40.070-76.8 57.878-16.696 8.904-22.261 28.939-13.357 44.522 8.904 16.696 28.939 22.261 45.635 13.357 47.861-25.6 128-80.139 128-149.148zM825.878 485.843c0 48.974-40.070 87.93-87.93 87.93-12.243 0-23.374-2.226-34.504-6.678-16.696-6.678-36.73 1.113-43.409 17.809s1.113 36.73 17.809 43.409c18.922 7.791 38.957 12.243 60.104 12.243 85.704 0 154.713-69.009 154.713-154.713s-70.122-154.713-154.713-154.713c-44.522 0-86.817 18.922-115.757 52.313-12.243 13.357-11.13 34.504 3.339 46.748 13.357 12.243 34.504 11.13 46.748-3.339 16.696-18.922 41.183-30.052 66.783-30.052 46.748 1.113 86.817 41.183 86.817 89.043z"/>
            <glyph unicode="&#xe96e;" glyph-name="user"
                   d="M512 324.452c164.73 0 299.409 134.678 299.409 300.522 0 166.957-134.678 301.635-299.409 301.635s-299.409-134.678-299.409-300.522c0-166.957 134.678-301.635 299.409-301.635zM512 837.565c115.757 0 210.365-94.609 210.365-211.478s-94.609-211.478-210.365-211.478-210.365 94.609-210.365 211.478c0 116.87 94.609 211.478 210.365 211.478zM651.13 295.513c-14.47 4.452-31.165 1.113-42.296-8.904l-96.835-82.365-96.835 82.365c-12.243 10.017-27.826 13.357-42.296 8.904-62.33-20.035-372.87-126.887-372.87-281.6 0-24.487 20.035-44.522 44.522-44.522h934.957c24.487 0 44.522 20.035 44.522 44.522 0 154.713-310.539 261.565-372.87 281.6zM112.417 58.435c48.974 52.313 166.957 110.191 264.904 143.583l105.739-90.157c16.696-14.47 41.183-14.47 57.878 0l105.739 90.157c97.948-34.504 215.93-92.383 264.904-143.583h-799.165z"/>
        </font>
</defs>
</svg>
